<mxfile host="app.diagrams.net"><diagram name="Diagram 1" id="diagram1"><mxGraphModel dx="1000" dy="1000" grid="1" gridSize="10" guides="1" tooltips="1" connect="1" arrows="1" fold="1" page="1" pageScale="1" pageWidth="827" pageHeight="1169" math="0" shadow="0"><root><mxCell id="0" /><mxCell id="1" parent="0" /><mxCell id="header" value="10.01 Sample Supplier operation.drawio" style="swimlane;html=1;startSize=20;horizontal=1;" vertex="1" connectable="0" parent="1"><mxGeometry x="0" y="30" width="820" height="20" relative="1" as="geometry" /></mxCell><mxCell id="Supplier" value="Supplier" style="swimlane;html=1;startSize=40;horizontal=0" vertex="1" parent="header"><mxGeometry y="20" width="820" height="120" as="geometry" /></mxCell><mxCell id="Registration" value="Registration" style="rounded=1;arcSize=11;whiteSpace=wrap;html=1;y=20;width=120;height=60;label=;text=;x=70;" vertex="1" parent="Supplier"><mxGeometry x="70" y="20" width="120" height="60" as="geometry" /></mxCell><mxCell id="Seting up integration" value="Seting up integration" style="rounded=1;arcSize=11;whiteSpace=wrap;html=1;y=20;width=120;height=60;label=;text=;x=270;" vertex="1" parent="Supplier"><mxGeometry x="270" y="20" width="120" height="60" as="geometry" /></mxCell><mxCell id="Setting up LPoints" value="Setting up LPoints" style="rounded=1;arcSize=11;whiteSpace=wrap;html=1;y=20;width=120;height=60;label=;text=;x=470;" vertex="1" parent="Supplier"><mxGeometry x="470" y="20" width="120" height="60" as="geometry" /></mxCell><mxCell id="Get reports" value="Get reports" style="rounded=1;arcSize=11;whiteSpace=wrap;html=1;y=20;width=120;height=60;label=;text=;x=670;" vertex="1" parent="Supplier"><mxGeometry x="670" y="20" width="120" height="60" as="geometry" /></mxCell><mxCell id="Logistic poins" value="Logistic poins" style="swimlane;html=1;startSize=40;horizontal=0" vertex="1" parent="header"><mxGeometry y="140" width="820" height="120" as="geometry" /></mxCell><mxCell id="Generate LEvent message" value="Generate LEvent message" style="rounded=1;arcSize=11;whiteSpace=wrap;html=1;y=20;width=120;height=60;label=QR code;text=;fillColor=#999999;fontColor=light-dark(#ffffff, #ededed);strokeColor=none;x=470;" vertex="1" parent="Logistic poins"><mxGeometry x="470" y="20" width="120" height="60" as="geometry" /></mxCell><mxCell id="label_Generate LEvent message" value="QR code" style="whiteSpace=wrap;fontSize=9;fontStyle=0;fillColor=#222222;fontColor=light-dark(#ffffff, #ededed);strokeColor=none;" vertex="1" connectable="0" parent="Generate LEvent message"><mxGeometry x="0" y="48.0" width="50" height="12" as="geometry" /></mxCell><mxCell id="Misos.LES" value="Misos.LES" style="swimlane;html=1;startSize=40;horizontal=0;" vertex="1" parent="header"><mxGeometry y="260" width="820" height="170" as="geometry" /></mxCell><mxCell id="Manage Supplier" value="Manage Supplier&lt;br&gt;(Scoring)" style="rounded=1;arcSize=11;whiteSpace=wrap;html=1;y=20;width=120;height=60;label=MDM;text=&lt;br&gt;(Scoring);fillColor=#ffe6cc;fontColor=light-dark(#ffffff, #ededed);strokeColor=none;x=70;" vertex="1" parent="Misos.LES"><mxGeometry x="70" y="20" width="120" height="60" as="geometry" /></mxCell><mxCell id="label_Manage Supplier" value="MDM" style="whiteSpace=wrap;fontSize=9;fontStyle=0;fillColor=#222222;fontColor=light-dark(#ffffff, #ededed);strokeColor=none;" vertex="1" connectable="0" parent="Manage Supplier"><mxGeometry x="0" y="48.0" width="50" height="12" as="geometry" /></mxCell><mxCell id="Manage Logistic point" value="Manage Logistic point" style="rounded=1;arcSize=11;whiteSpace=wrap;html=1;y=20;width=120;height=60;label=MDM;text=;fillColor=#3B8AE6;fontColor=light-dark(#ffffff, #ededed);strokeColor=none;x=270;" vertex="1" parent="Misos.LES"><mxGeometry x="270" y="20" width="120" height="60" as="geometry" /></mxCell><mxCell id="label_Manage Logistic point" value="MDM" style="whiteSpace=wrap;fontSize=9;fontStyle=0;fillColor=#222222;fontColor=light-dark(#ffffff, #ededed);strokeColor=none;" vertex="1" connectable="0" parent="Manage Logistic point"><mxGeometry x="0" y="48.0" width="50" height="12" as="geometry" /></mxCell><mxCell id="Message processing" value="Message processing" style="rounded=1;arcSize=11;whiteSpace=wrap;html=1;y=20;width=120;height=60;label=GATE;text=;fillColor=#3B8AE6;fontColor=light-dark(#ffffff, #ededed);strokeColor=none;x=470;" vertex="1" parent="Misos.LES"><mxGeometry x="470" y="20" width="120" height="60" as="geometry" /></mxCell><mxCell id="label_Message processing" value="GATE" style="whiteSpace=wrap;fontSize=9;fontStyle=0;fillColor=#222222;fontColor=light-dark(#ffffff, #ededed);strokeColor=none;" vertex="1" connectable="0" parent="Message processing"><mxGeometry x="0" y="48.0" width="50" height="12" as="geometry" /></mxCell><mxCell id="LES BI &amp; reports" value="LES BI &amp; reports" style="rounded=1;arcSize=11;whiteSpace=wrap;html=1;y=20;width=120;height=60;label=BI;text=;fillColor=#3B8AE6;fontColor=light-dark(#ffffff, #ededed);strokeColor=none;x=670;" vertex="1" parent="Misos.LES"><mxGeometry x="670" y="20" width="120" height="60" as="geometry" /></mxCell><mxCell id="label_LES BI &amp; reports" value="BI" style="whiteSpace=wrap;fontSize=9;fontStyle=0;fillColor=#222222;fontColor=light-dark(#ffffff, #ededed);strokeColor=none;" vertex="1" connectable="0" parent="LES BI &amp; reports"><mxGeometry x="0" y="48.0" width="50" height="12" as="geometry" /></mxCell><mxCell id="Data Exchange &amp; Delivery" value="Data Exchange &amp; Delivery" style="rounded=1;arcSize=11;whiteSpace=wrap;html=1;y=20;width=120;height=60;label=Bus;text=;fillColor=#3B8AE6;fontColor=light-dark(#ffffff, #ededed);strokeColor=none;x= 70; y=110; width=720; height=30;" vertex="1" parent="Misos.LES"><mxGeometry x="70" y="110" width="720" height="30" as="geometry" /></mxCell><mxCell id="label_Data Exchange &amp; Delivery" value="Bus" style="whiteSpace=wrap;fontSize=9;fontStyle=0;fillColor=#222222;fontColor=light-dark(#ffffff, #ededed);strokeColor=none;" vertex="1" connectable="0" parent="Data Exchange &amp; Delivery"><mxGeometry x="0" y="18.0" width="50" height="12" as="geometry" /></mxCell><mxCell id="Plant" value="Plant" style="swimlane;html=1;startSize=40;horizontal=0" vertex="1" parent="header"><mxGeometry y="430" width="820" height="120" as="geometry" /></mxCell><mxCell id="Supplier manage" value="Supplier manage" style="rounded=1;arcSize=11;whiteSpace=wrap;html=1;y=20;width=120;height=60;label=Plant.LES;text=;fillColor=#800000;fontColor=light-dark(#ffffff, #ededed);strokeColor=none;x=70;" vertex="1" parent="Plant"><mxGeometry x="70" y="20" width="120" height="60" as="geometry" /></mxCell><mxCell id="label_Supplier manage" value="Plant.LES" style="whiteSpace=wrap;fontSize=9;fontStyle=0;fillColor=#222222;fontColor=light-dark(#ffffff, #ededed);strokeColor=none;" vertex="1" connectable="0" parent="Supplier manage"><mxGeometry x="0" y="48.0" width="50" height="12" as="geometry" /></mxCell><mxCell id="LES Exchange" value="LES Exchange" style="rounded=1;arcSize=11;whiteSpace=wrap;html=1;y=20;width=120;height=60;label=Plant.LES;text=;fillColor=#800000;fontColor=light-dark(#ffffff, #ededed);strokeColor=none;x=470;" vertex="1" parent="Plant"><mxGeometry x="470" y="20" width="120" height="60" as="geometry" /></mxCell><mxCell id="label_LES Exchange" value="Plant.LES" style="whiteSpace=wrap;fontSize=9;fontStyle=0;fillColor=#222222;fontColor=light-dark(#ffffff, #ededed);strokeColor=none;" vertex="1" connectable="0" parent="LES Exchange"><mxGeometry x="0" y="48.0" width="50" height="12" as="geometry" /></mxCell><mxCell id="LES BI &amp; Report" value="LES BI &amp; Report" style="rounded=1;arcSize=11;whiteSpace=wrap;html=1;y=20;width=120;height=60;label=Plant.LES;text=;fillColor=#800000;fontColor=light-dark(#ffffff, #ededed);strokeColor=none;x=670;" vertex="1" parent="Plant"><mxGeometry x="670" y="20" width="120" height="60" as="geometry" /></mxCell><mxCell id="label_LES BI &amp; Report" value="Plant.LES" style="whiteSpace=wrap;fontSize=9;fontStyle=0;fillColor=#222222;fontColor=light-dark(#ffffff, #ededed);strokeColor=none;" vertex="1" connectable="0" parent="LES BI &amp; Report"><mxGeometry x="0" y="48.0" width="50" height="12" as="geometry" /></mxCell><mxCell id="link_1" style="strokeColor=#222222;" edge="1" source="Registration" target="Manage Supplier" parent="1"><mxGeometry relative="1" as="geometry" /></mxCell><mxCell id="link_1_label" value="company info" style="whiteSpace=wrap;fontSize=9;fontColor=#222222;labelBackgroundColor=#ffffff77;fontStyle=2" vertex="1" connectable="0" parent="link_1"><mxGeometry x="0" y="2" relative="1" as="geometry"><mxPoint as="offset" /></mxGeometry></mxCell><mxCell id="link_2" style="strokeColor=#222222;" edge="1" source="Manage Supplier" target="Seting up integration" parent="1"><mxGeometry relative="1" as="geometry" /></mxCell><mxCell id="link_2_label" value="ACCESS_KEY" style="whiteSpace=wrap;fontSize=9;fontColor=#222222;labelBackgroundColor=#ffffff77;fontStyle=2" vertex="1" connectable="0" parent="link_2"><mxGeometry x="0" y="2" relative="1" as="geometry"><mxPoint as="offset" /></mxGeometry></mxCell><mxCell id="link_3" style="strokeColor=#222222;" edge="1" source="Seting up integration" target="Manage Logistic point" parent="1"><mxGeometry relative="1" as="geometry" /></mxCell><mxCell id="link_3_label" value="places, parts" style="whiteSpace=wrap;fontSize=9;fontColor=#222222;labelBackgroundColor=#ffffff77;fontStyle=2" vertex="1" connectable="0" parent="link_3"><mxGeometry x="0" y="2" relative="1" as="geometry"><mxPoint as="offset" /></mxGeometry></mxCell><mxCell id="link_4" style="strokeColor=#222222;" edge="1" source="Seting up integration" target="Setting up LPoints" parent="1"><mxGeometry relative="1" as="geometry" /></mxCell><mxCell id="link_4_label" value="configure &amp; coding" style="whiteSpace=wrap;fontSize=9;fontColor=#222222;labelBackgroundColor=#ffffff77;fontStyle=2" vertex="1" connectable="0" parent="link_4"><mxGeometry x="0" y="2" relative="1" as="geometry"><mxPoint as="offset" /></mxGeometry></mxCell><mxCell id="link_5" style="strokeColor=#222222;" edge="1" source="Setting up LPoints" target="Generate LEvent message" parent="1"><mxGeometry relative="1" as="geometry" /></mxCell><mxCell id="link_5_label" value="equipment" style="whiteSpace=wrap;fontSize=9;fontColor=#222222;labelBackgroundColor=#ffffff77;fontStyle=2" vertex="1" connectable="0" parent="link_5"><mxGeometry x="0" y="2" relative="1" as="geometry"><mxPoint as="offset" /></mxGeometry></mxCell><mxCell id="link_6" style="rounded=0jettySize=auto;html=1;dashed=1;dashPattern=2 2;startArrow=none;startFill=0;strokeColor=#b11e42;" edge="1" source="Generate LEvent message" target="Message processing" parent="1"><mxGeometry relative="1" as="geometry" /></mxCell><mxCell id="link_6_label" value="LES data" style="whiteSpace=wrap;fontSize=9;fontColor=#b11e42;labelBackgroundColor=#ffffff77;fontStyle=2" vertex="1" connectable="0" parent="link_6"><mxGeometry x="0" y="2" relative="1" as="geometry"><mxPoint as="offset" /></mxGeometry></mxCell><mxCell id="link_7" style="rounded=0jettySize=auto;html=1;dashed=1;dashPattern=2 2;startArrow=none;startFill=0;strokeColor=#b11e42;" edge="1" source="Message processing" target="LES BI &amp; reports" parent="1"><mxGeometry relative="1" as="geometry" /></mxCell><mxCell id="link_7_label" value="LES data" style="whiteSpace=wrap;fontSize=9;fontColor=#b11e42;labelBackgroundColor=#ffffff77;fontStyle=2" vertex="1" connectable="0" parent="link_7"><mxGeometry x="0" y="2" relative="1" as="geometry"><mxPoint as="offset" /></mxGeometry></mxCell><mxCell id="link_8" style="strokeColor=#222222;" edge="1" source="Get reports" target="LES BI &amp; reports" parent="1"><mxGeometry relative="1" as="geometry" /></mxCell><mxCell id="link_8_label" value="LES reports" style="whiteSpace=wrap;fontSize=9;fontColor=#222222;labelBackgroundColor=#ffffff77;fontStyle=2" vertex="1" connectable="0" parent="link_8"><mxGeometry x="0" y="2" relative="1" as="geometry"><mxPoint as="offset" /></mxGeometry></mxCell><mxCell id="link_9" style="rounded=0jettySize=auto;html=1;dashed=1;dashPattern=8 8;startArrow=none;startFill=0;strokeColor=#555555;" edge="1" source="Message processing" target="Data Exchange &amp; Delivery" parent="1"><mxGeometry relative="1" as="geometry" /></mxCell><mxCell id="link_9_label" value="AMQP" style="whiteSpace=wrap;fontSize=9;fontColor=#555555;labelBackgroundColor=#ffffff77;fontStyle=2" vertex="1" connectable="0" parent="link_9"><mxGeometry x="0" y="2" relative="1" as="geometry"><mxPoint as="offset" /></mxGeometry></mxCell><mxCell id="link_10" style="strokeColor=#222222;edgeStyle=elbowEdgeStyle" edge="1" source="Manage Logistic point" target="Data Exchange &amp; Delivery" parent="1"><mxGeometry relative="1" as="geometry" /></mxCell><mxCell id="link_10_label" value="AMQP" style="whiteSpace=wrap;fontSize=9;fontColor=#222222;labelBackgroundColor=#ffffff77;fontStyle=2" vertex="1" connectable="0" parent="link_10"><mxGeometry x="0" y="2" relative="1" as="geometry"><mxPoint as="offset" /></mxGeometry></mxCell><mxCell id="link_11" style="strokeColor=#222222;edgeStyle=elbowEdgeStyle" edge="1" source="Manage Supplier" target="Data Exchange &amp; Delivery" parent="1"><mxGeometry relative="1" as="geometry" /></mxCell><mxCell id="link_11_label" value="AMQP" style="whiteSpace=wrap;fontSize=9;fontColor=#222222;labelBackgroundColor=#ffffff77;fontStyle=2" vertex="1" connectable="0" parent="link_11"><mxGeometry x="0" y="2" relative="1" as="geometry"><mxPoint as="offset" /></mxGeometry></mxCell><mxCell id="link_12" style="strokeColor=#222222;edgeStyle=elbowEdgeStyle" edge="1" source="Supplier manage" target="Data Exchange &amp; Delivery" parent="1"><mxGeometry relative="1" as="geometry" /></mxCell><mxCell id="link_12_label" value="AMQP" style="whiteSpace=wrap;fontSize=9;fontColor=#222222;labelBackgroundColor=#ffffff77;fontStyle=2" vertex="1" connectable="0" parent="link_12"><mxGeometry x="0" y="2" relative="1" as="geometry"><mxPoint as="offset" /></mxGeometry></mxCell><mxCell id="link_13" style="strokeColor=#222222;edgeStyle=elbowEdgeStyle" edge="1" source="LES Exchange" target="Data Exchange &amp; Delivery" parent="1"><mxGeometry relative="1" as="geometry" /></mxCell><mxCell id="link_13_label" value="AMQP" style="whiteSpace=wrap;fontSize=9;fontColor=#222222;labelBackgroundColor=#ffffff77;fontStyle=2" vertex="1" connectable="0" parent="link_13"><mxGeometry x="0" y="2" relative="1" as="geometry"><mxPoint as="offset" /></mxGeometry></mxCell><mxCell id="link_14" style="strokeColor=#222222;edgeStyle=elbowEdgeStyle" edge="1" source="LES BI &amp; Report" target="Data Exchange &amp; Delivery" parent="1"><mxGeometry relative="1" as="geometry" /></mxCell><mxCell id="link_14_label" value="AMQP" style="whiteSpace=wrap;fontSize=9;fontColor=#222222;labelBackgroundColor=#ffffff77;fontStyle=2" vertex="1" connectable="0" parent="link_14"><mxGeometry x="0" y="2" relative="1" as="geometry"><mxPoint as="offset" /></mxGeometry></mxCell></root></mxGraphModel></diagram></mxfile>